<svg width="21" height="29" viewBox="0 0 21 29" fill="none" xmlns="http://www.w3.org/2000/svg">
<path d="M20.4016 5.26893C20.4012 4.7752 20.2339 4.2961 19.9268 3.90953C19.6196 3.52297 19.1908 3.25167 18.7099 3.13976L18.1557 1.12726C18.0546 0.801835 17.8507 0.517948 17.5746 0.318135C17.2986 0.118322 16.9652 0.0133427 16.6245 0.0189272H4.35989C4.02046 0.0114761 3.68802 0.115978 3.4139 0.316296C3.13978 0.516614 2.93923 0.801605 2.84323 1.12726L2.28906 3.13976C1.79065 3.26545 1.35059 3.55862 1.04261 3.97015C0.734626 4.38168 0.577441 4.88655 0.597393 5.40018C0.596183 5.86616 0.746225 6.31996 1.02498 6.69338C1.30373 7.0668 1.69613 7.33968 2.14323 7.47101L2.28906 11.5106C2.05557 11.5485 1.84066 11.6611 1.67656 11.8314C1.57349 11.9402 1.49328 12.0684 1.44067 12.2087C1.38807 12.349 1.36414 12.4984 1.37031 12.6481L1.72031 21.0481C1.73094 21.3062 1.83153 21.5525 2.00465 21.7443C2.17777 21.936 2.41252 22.0612 2.66823 22.0981L2.78489 25.3356C2.81492 26.3158 3.22659 27.2454 3.93215 27.9265C4.6377 28.6075 5.58136 28.9861 6.56198 28.9814H14.4224C15.4053 28.9891 16.3522 28.6121 17.0608 27.9308C17.7693 27.2495 18.1832 26.3181 18.2141 25.3356L18.3307 22.0981C18.5837 22.0579 18.8148 21.9313 18.985 21.7399C19.1552 21.5484 19.2538 21.304 19.2641 21.0481L19.6141 12.6481C19.6202 12.4984 19.5963 12.349 19.5437 12.2087C19.4911 12.0684 19.4109 11.9402 19.3078 11.8314C19.1495 11.6613 18.9392 11.5484 18.7099 11.5106L18.8557 7.47101C19.3174 7.32131 19.7178 7.02555 19.9967 6.62833C20.2755 6.23111 20.4176 5.75398 20.4016 5.26893ZM4.35989 1.47726L16.7411 1.52101L17.1786 3.08143H3.84948L4.35989 1.47726ZM16.7557 25.2918C16.7374 25.8955 16.4825 26.4679 16.046 26.8853C15.6094 27.3027 15.0263 27.5318 14.4224 27.5231H6.56198C5.96023 27.5291 5.38018 27.2987 4.94656 26.8814C4.51294 26.4641 4.26039 25.8934 4.24323 25.2918L4.12656 22.1127H16.8724L16.7557 25.2918ZM7.43698 16.8043C7.43698 16.1986 7.61659 15.6065 7.9531 15.1029C8.28961 14.5993 8.76791 14.2068 9.32751 13.975C9.88711 13.7432 10.5029 13.6825 11.0969 13.8007C11.691 13.9189 12.2367 14.2105 12.665 14.6388C13.0933 15.0671 13.385 15.6128 13.5031 16.2069C13.6213 16.8009 13.5607 17.4167 13.3289 17.9763C13.0971 18.5359 12.7045 19.0142 12.2009 19.3507C11.6973 19.6872 11.1052 19.8668 10.4995 19.8668C9.68725 19.8668 8.90829 19.5442 8.33396 18.9699C7.75963 18.3955 7.43698 17.6166 7.43698 16.8043ZM17.2516 11.4814H3.74739L3.60156 7.58768H17.3828L17.2516 11.4814ZM18.2141 6.12934H2.78489C2.67873 6.12578 2.57448 6.10003 2.47886 6.05377C2.38324 6.0075 2.29836 5.94173 2.22968 5.86069C2.161 5.77965 2.11004 5.68513 2.08008 5.58321C2.05013 5.4813 2.04183 5.37424 2.05573 5.26893C2.05573 5.07554 2.13255 4.89007 2.26929 4.75333C2.40604 4.61658 2.59151 4.53976 2.78489 4.53976H18.2141C18.3198 4.54463 18.4234 4.57124 18.5183 4.61793C18.6133 4.66462 18.6977 4.73038 18.7661 4.81112C18.8345 4.89186 18.8855 4.98584 18.916 5.08719C18.9465 5.18854 18.9558 5.29509 18.9432 5.40018C18.9432 5.59356 18.8664 5.77903 18.7297 5.91578C18.5929 6.05252 18.4074 6.12934 18.2141 6.12934Z" fill="white"/>
</svg>
