<svg width="28" height="28" viewBox="0 0 28 28" fill="none" xmlns="http://www.w3.org/2000/svg">
<path d="M8.20761 23.6929H12.2574V22.4247H9.33337V20.3988H12.2574V15.8365H8.20761V17.1047H11.1317V19.1306H8.20761V23.6929ZM18.667 23.6929H19.7928V15.8365H18.667V19.1306H16.8687V15.8365H15.7429V20.3988H18.667V23.6929ZM26.4275 12.1816V25.34C26.4275 26.0976 26.2018 26.7301 25.7506 27.2374C25.3003 27.7458 24.7384 28 24.0648 28H3.93408C3.26154 28 2.69963 27.7464 2.24835 27.2391C1.79805 26.7307 1.57289 26.0976 1.57289 25.34V12.1191C0.955914 11.6052 0.504632 10.9326 0.219048 10.1014C-0.0665366 9.2691 -0.0728721 8.38078 0.200041 7.43647L1.6226 2.15435C1.81754 1.48235 2.13236 0.955294 2.56708 0.573177C3.00081 0.191059 3.53689 0 4.17531 0H23.7666C24.406 0 24.9416 0.17898 25.3734 0.536941C25.8042 0.894902 26.12 1.41263 26.3208 2.09012L27.7989 7.43647C28.0728 8.38078 28.0669 9.27624 27.7813 10.1228C27.4948 10.9694 27.0435 11.6557 26.4275 12.1816ZM17.2167 11.5294C18.1553 11.5294 18.8561 11.2329 19.3191 10.64C19.7821 10.0471 19.977 9.43545 19.9039 8.80518L18.9331 1.64706H14.7327V8.56471C14.7327 9.37396 14.9783 10.0701 15.4695 10.6532C15.9598 11.2373 16.5412 11.5294 17.2167 11.5294ZM10.639 11.5294C11.4246 11.5294 12.0596 11.2373 12.544 10.6532C13.0284 10.0701 13.2706 9.37396 13.2706 8.56471V1.64706H9.06875L8.09503 8.932C8.03557 9.44259 8.23392 10.0031 8.69008 10.6136C9.14623 11.2242 9.79684 11.5294 10.639 11.5294ZM4.13145 11.5294C4.77572 11.5294 5.3235 11.2824 5.77478 10.7882C6.22606 10.2941 6.50677 9.67757 6.61691 8.93859L7.53361 1.64706H4.17678C3.85805 1.64706 3.60463 1.72612 3.41652 1.88424C3.22938 2.04235 3.08902 2.28008 2.99545 2.59741L1.64599 7.79882C1.40622 8.66408 1.50856 9.50243 1.95302 10.3139C2.39845 11.1242 3.1246 11.5294 4.13145 11.5294ZM23.8689 11.5294C24.7442 11.5294 25.4431 11.1451 25.9655 10.3765C26.4889 9.60784 26.6185 8.74863 26.3544 7.79882L24.9318 2.53318C24.8383 2.21694 24.6974 1.9902 24.5093 1.85294C24.3212 1.71569 24.0683 1.64706 23.7505 1.64706H20.4668L21.3835 8.93859C21.4936 9.67757 21.7743 10.2941 22.2256 10.7882C22.6759 11.2824 23.2237 11.5294 23.8689 11.5294ZM3.93408 26.3529H24.0663C24.3285 26.3529 24.5439 26.258 24.7125 26.068C24.8811 25.878 24.9655 25.6354 24.9655 25.34V12.9673C24.7686 13.0442 24.5814 13.098 24.404 13.1287C24.2266 13.1605 24.0483 13.1765 23.8689 13.1765C23.211 13.1765 22.632 13.0321 22.132 12.7433C21.633 12.4534 21.1583 11.9922 20.708 11.3598C20.3259 11.8956 19.8547 12.3321 19.2942 12.6692C18.7338 13.0074 18.0525 13.1765 17.2503 13.1765C16.6674 13.1765 16.1128 13.0233 15.5865 12.7169C15.0602 12.4106 14.5314 11.9576 14.0002 11.3581C13.5109 11.9576 12.9685 12.4106 12.3729 12.7169C11.7774 13.0233 11.2106 13.1765 10.6726 13.1765C10.0595 13.1765 9.46203 13.0447 8.88014 12.7812C8.29825 12.5176 7.788 12.0433 7.34939 11.3581C6.63105 12.1674 6.00335 12.6725 5.46629 12.8734C4.93021 13.0755 4.48575 13.1765 4.13292 13.1765C3.9526 13.1765 3.77131 13.1605 3.58904 13.1287C3.40677 13.0969 3.22256 13.0431 3.03639 12.9673V25.34C3.03639 25.6354 3.1207 25.878 3.28932 26.068C3.45794 26.258 3.67335 26.3529 3.93554 26.3529" fill="white"/>
</svg>
