<svg width="25" height="25" viewBox="0 0 25 25" fill="none" xmlns="http://www.w3.org/2000/svg">
<path d="M10.2274 0L11.3638 1.92308H22.7273L23.8636 0H10.2274ZM11.3638 2.88462V5.28846C11.3638 5.28846 11.3638 10.5769 17.0455 10.5769C22.7273 10.5769 22.7273 5.28846 22.7273 5.28846V2.88462H11.3638ZM2.23657 5.74231C1.63459 5.75041 1.061 5.96029 0.641715 6.32589C0.222433 6.69149 -0.00827789 7.18292 0.000227071 7.69231V15.3846C-5.50266e-05 15.6727 0.0761773 15.9572 0.223291 16.2171C0.370405 16.4769 0.584641 16.7055 0.850167 16.8858C1.11569 17.0662 1.42572 17.1938 1.75735 17.2591C2.08898 17.3245 2.43372 17.326 2.76611 17.2635L9.09105 16.0712V25L22.4523 11.6731C22.1296 11.5888 21.7945 11.5435 21.4569 11.5385H12.5001L4.54564 12.9885V7.69231C4.54994 7.4349 4.49312 7.17938 4.37854 6.9409C4.26396 6.70242 4.09396 6.48583 3.87862 6.30398C3.66328 6.12212 3.40698 5.9787 3.12492 5.88222C2.84285 5.78574 2.54077 5.73816 2.23657 5.74231ZM24.4273 12.9058L12.3001 25H25V14.5365C25 13.9327 24.7864 13.375 24.4273 12.9058Z" fill="white"/>
</svg>
