<svg width="27" height="27" viewBox="0 0 27 27" fill="none" xmlns="http://www.w3.org/2000/svg">
<path d="M23.2491 21H3.73353M13.4913 21V13.5M17.6732 21V16M9.3094 21V16M23.2491 26V12.6625C23.7667 12.4933 24.242 12.2342 24.6476 11.8999C25.0532 11.5656 25.3812 11.1627 25.6127 10.7144C25.8442 10.2662 25.9747 9.78129 25.9967 9.28767C26.0186 8.79405 25.9317 8.30139 25.7408 7.83799C25.5498 7.37459 25.2587 6.94957 24.8841 6.58733C24.5095 6.22509 24.0588 5.93276 23.5579 5.72714C23.057 5.52152 22.5157 5.40664 21.9651 5.38911C21.4146 5.37159 20.8656 5.45175 20.3496 5.625C19.8339 3.3425 16.9205 1 13.4913 1C10.0621 1 7.14875 3.3425 6.63298 5.625C5.59227 5.28022 4.44144 5.32028 3.43367 5.73638C2.4259 6.15248 1.64373 6.91052 1.25924 7.84375C0.874747 8.77698 0.919426 9.80895 1.38345 10.7126C1.84747 11.6163 2.69282 12.3177 3.73353 12.6625V26H23.2491Z" stroke="white" stroke-width="2"/>
</svg>
