<svg width="15" height="20" viewBox="0 0 15 20" fill="none" xmlns="http://www.w3.org/2000/svg">
<path fill-rule="evenodd" clip-rule="evenodd" d="M7.5 20C7.5 20 15 14.6154 15 7.69231C15 5.65218 14.2098 3.69561 12.8033 2.25302C11.3968 0.810437 9.48912 0 7.5 0C5.51088 0 3.60322 0.810437 2.1967 2.25302C0.790176 3.69561 0 5.65218 0 7.69231C0 14.6154 7.5 20 7.5 20ZM10.5 7.69231C10.5 9.39165 9.15685 10.7692 7.5 10.7692C5.84315 10.7692 4.5 9.39165 4.5 7.69231C4.5 5.99297 5.84315 4.61538 7.5 4.61538C9.15685 4.61538 10.5 5.99297 10.5 7.69231Z" fill="#888888"/>
</svg>
