<svg width="16" height="32" viewBox="0 0 16 32" fill="none" xmlns="http://www.w3.org/2000/svg">
<path d="M1 19C0.734787 19 0.480433 18.8946 0.292897 18.7071C0.10536 18.5196 3.25188e-06 18.2652 3.25188e-06 18C3.25188e-06 17.7348 0.10536 17.4804 0.292897 17.2929C0.480433 17.1054 0.734787 17 1 17H4.803C2.546 15.506 1 12.488 1 9C1 4.029 4.134 0 8 0C11.866 0 15 4.029 15 9C15 12.488 13.454 15.506 11.197 17H15C15.2652 17 15.5196 17.1054 15.7071 17.2929C15.8946 17.4804 16 17.7348 16 18C16 18.2652 15.8946 18.5196 15.7071 18.7071C15.5196 18.8946 15.2652 19 15 19H1ZM15.2 21C15.641 21 16 21.348 16 21.777V21.997C16 25.283 13.9 27.812 10.935 28.949C10.512 29.112 10.232 29.509 10.232 29.953V30.915C10.232 31.515 9.732 32 9.116 32H6.884C6.267 32 5.767 31.515 5.767 30.915V29.937C5.767 29.493 5.488 29.1 5.065 28.933C2.07 27.747 -0.00299675 25.082 3.25188e-06 21.77C3.25188e-06 21.344 0.362003 21 0.800003 21H15.2Z" fill="white"/>
</svg>
