<svg width="15" height="12" viewBox="0 0 15 12" fill="none" xmlns="http://www.w3.org/2000/svg">
<path d="M13.7223 1.53502L13.7231 1.5359C14.8671 2.74649 14.7222 4.68335 13.4519 5.899C13.4518 5.89914 13.4516 5.89928 13.4515 5.89941L7.59431 11.4747C7.59415 11.4749 7.594 11.475 7.59384 11.4752C7.57929 11.4886 7.55495 11.5 7.52494 11.5C7.49494 11.5 7.4706 11.4886 7.45605 11.4752C7.45589 11.475 7.45573 11.4749 7.45558 11.4747L1.44571 5.75407C1.44567 5.75403 1.44563 5.75398 1.44558 5.75394C1.13334 5.45647 0.889568 5.10298 0.727754 4.71579C0.56595 4.32862 0.489115 3.91505 0.501241 3.50005C0.513368 3.08505 0.614248 2.67593 0.79861 2.29752C0.983011 1.91902 1.24742 1.57849 1.57706 1.29761L1.57706 1.29761L1.57797 1.29683C2.87069 0.189961 4.94686 0.33802 6.23232 1.55446L7.17884 2.46231C7.37221 2.64777 7.6774 2.64785 7.87086 2.46249L8.96916 1.41016C8.96938 1.40995 8.96961 1.40973 8.96983 1.40952C9.28229 1.11249 9.65648 0.877854 10.0702 0.721199C10.4842 0.564419 10.9283 0.489382 11.375 0.501209C11.8217 0.513036 12.2605 0.611445 12.6644 0.789732C13.0682 0.968003 13.4279 1.22203 13.7223 1.53502Z" stroke="white" stroke-linecap="round" stroke-linejoin="round"/>
</svg>
