<svg width="14" height="14" viewBox="0 0 14 14" fill="none" xmlns="http://www.w3.org/2000/svg">
<path d="M11.375 4.8125H2.625C2.38338 4.8125 2.1875 5.00838 2.1875 5.25V11.375C2.1875 11.6166 2.38338 11.8125 2.625 11.8125H11.375C11.6166 11.8125 11.8125 11.6166 11.8125 11.375V5.25C11.8125 5.00838 11.6166 4.8125 11.375 4.8125Z" stroke="#888888" stroke-linecap="round" stroke-linejoin="round"/>
<path d="M5.03125 4.8125V2.84375C5.03125 2.32161 5.23867 1.82085 5.60788 1.45163C5.9771 1.08242 6.47786 0.875 7 0.875C7.52214 0.875 8.0229 1.08242 8.39212 1.45163C8.76133 1.82085 8.96875 2.32161 8.96875 2.84375V4.8125" stroke="#888888" stroke-linecap="round" stroke-linejoin="round"/>
<path d="M7 8.96875C7.36244 8.96875 7.65625 8.67494 7.65625 8.3125C7.65625 7.95006 7.36244 7.65625 7 7.65625C6.63756 7.65625 6.34375 7.95006 6.34375 8.3125C6.34375 8.67494 6.63756 8.96875 7 8.96875Z" fill="#888888"/>
</svg>
