<svg width="20" height="19" viewBox="0 0 20 19" fill="none" xmlns="http://www.w3.org/2000/svg">
<path d="M7.69532 16.0314H4.13282C3.97534 16.0314 3.82432 15.9689 3.71297 15.8575C3.60162 15.7462 3.53907 15.5952 3.53907 15.4377V12.1201C3.5388 12.043 3.55373 11.9666 3.58303 11.8953C3.61232 11.824 3.65539 11.7591 3.70977 11.7045L12.616 2.79823C12.6713 2.74213 12.7371 2.69757 12.8097 2.66716C12.8824 2.63675 12.9603 2.62109 13.0391 2.62109C13.1178 2.62109 13.1958 2.63675 13.2684 2.66716C13.341 2.69757 13.4069 2.74213 13.4621 2.79823L16.7723 6.10838C16.8284 6.16363 16.8729 6.22948 16.9033 6.30211C16.9337 6.37474 16.9494 6.45269 16.9494 6.53143C16.9494 6.61017 16.9337 6.68812 16.9033 6.76075C16.8729 6.83337 16.8284 6.89923 16.7723 6.95448L7.69532 16.0314Z" stroke="black" stroke-width="1.35714" stroke-linecap="round" stroke-linejoin="round"/>
<path d="M16.6016 16.0312H7.69531" stroke="black" stroke-width="1.35714" stroke-linecap="round" stroke-linejoin="round"/>
<path d="M10.6641 4.75L14.8203 8.90625" stroke="black" stroke-width="1.35714" stroke-linecap="round" stroke-linejoin="round"/>
</svg>
