<svg width="20" height="20" viewBox="0 0 20 20" fill="none" xmlns="http://www.w3.org/2000/svg">
<path d="M4.82031 12.7324C6.13199 12.7324 7.19531 11.6691 7.19531 10.3574C7.19531 9.04575 6.13199 7.98242 4.82031 7.98242C3.50864 7.98242 2.44531 9.04575 2.44531 10.3574C2.44531 11.6691 3.50864 12.7324 4.82031 12.7324Z" stroke="black" stroke-width="1.35714" stroke-linecap="round" stroke-linejoin="round"/>
<path d="M13.1328 18.0762C14.4445 18.0762 15.5078 17.0128 15.5078 15.7012C15.5078 14.3895 14.4445 13.3262 13.1328 13.3262C11.8211 13.3262 10.7578 14.3895 10.7578 15.7012C10.7578 17.0128 11.8211 18.0762 13.1328 18.0762Z" stroke="black" stroke-width="1.35714" stroke-linecap="round" stroke-linejoin="round"/>
<path d="M13.1328 7.38867C14.4445 7.38867 15.5078 6.32535 15.5078 5.01367C15.5078 3.702 14.4445 2.63867 13.1328 2.63867C11.8211 2.63867 10.7578 3.702 10.7578 5.01367C10.7578 6.32535 11.8211 7.38867 13.1328 7.38867Z" stroke="black" stroke-width="1.35714" stroke-linecap="round" stroke-linejoin="round"/>
<path d="M11.134 6.29834L6.81445 9.07412" stroke="black" stroke-width="1.35714" stroke-linecap="round" stroke-linejoin="round"/>
<path d="M6.81445 11.6416L11.134 14.4174" stroke="black" stroke-width="1.35714" stroke-linecap="round" stroke-linejoin="round"/>
</svg>
