<svg width="26" height="25" viewBox="0 0 26 25" fill="none" xmlns="http://www.w3.org/2000/svg">
<path d="M15.3438 20.3125V15.625C15.3438 15.4178 15.2614 15.2191 15.1149 15.0726C14.9684 14.9261 14.7697 14.8437 14.5625 14.8437H11.4375C11.2303 14.8437 11.0316 14.9261 10.8851 15.0726C10.7386 15.2191 10.6562 15.4178 10.6562 15.625V20.3125C10.6562 20.5197 10.5739 20.7184 10.4274 20.8649C10.2809 21.0114 10.0822 21.0937 9.875 21.0937H5.1875C4.9803 21.0937 4.78159 21.0114 4.63507 20.8649C4.48856 20.7184 4.40625 20.5197 4.40625 20.3125V11.2793C4.408 11.1712 4.43136 11.0645 4.47497 10.9655C4.51858 10.8666 4.58154 10.7774 4.66016 10.7031L12.4727 3.60351C12.6167 3.47175 12.8048 3.39868 13 3.39868C13.1952 3.39868 13.3833 3.47175 13.5273 3.60351L21.3398 10.7031C21.4185 10.7774 21.4814 10.8666 21.525 10.9655C21.5686 11.0645 21.592 11.1712 21.5938 11.2793V20.3125C21.5938 20.5197 21.5114 20.7184 21.3649 20.8649C21.2184 21.0114 21.0197 21.0937 20.8125 21.0937H16.125C15.9178 21.0937 15.7191 21.0114 15.5726 20.8649C15.4261 20.7184 15.3438 20.5197 15.3438 20.3125Z" stroke="#CCCCCC" stroke-width="2" stroke-linecap="round" stroke-linejoin="round"/>
</svg>
