<svg width="26" height="25" viewBox="0 0 26 25" fill="none" xmlns="http://www.w3.org/2000/svg">
<path d="M20.0312 21.875C21.3257 21.875 22.375 20.8257 22.375 19.5312C22.375 18.2368 21.3257 17.1875 20.0312 17.1875C18.7368 17.1875 17.6875 18.2368 17.6875 19.5312C17.6875 20.8257 18.7368 21.875 20.0312 21.875Z" stroke="#CCCCCC" stroke-width="2" stroke-linecap="round" stroke-linejoin="round"/>
<path d="M7.53125 5.46875H16.9062C17.7351 5.46875 18.5299 5.79799 19.116 6.38404C19.702 6.97009 20.0312 7.76495 20.0312 8.59375C20.0312 9.42255 19.702 10.2174 19.116 10.8035C18.5299 11.3895 17.7351 11.7187 16.9062 11.7188H7.53125C6.49525 11.7188 5.50168 12.1303 4.76911 12.8629C4.03655 13.5954 3.625 14.589 3.625 15.625C3.625 16.661 4.03655 17.6546 4.76911 18.3871C5.50168 19.1197 6.49525 19.5312 7.53125 19.5312H17.6875" stroke="#CCCCCC" stroke-width="2" stroke-linecap="round" stroke-linejoin="round"/>
</svg>
