<svg width="26" height="25" viewBox="0 0 26 25" fill="none" xmlns="http://www.w3.org/2000/svg">
<path d="M21.2031 12.5C22.2818 12.5 23.1562 11.6256 23.1562 10.5469C23.1562 9.46819 22.2818 8.59375 21.2031 8.59375C20.1244 8.59375 19.25 9.46819 19.25 10.5469C19.25 11.6256 20.1244 12.5 21.2031 12.5Z" stroke="#CCCCCC" stroke-width="2" stroke-linecap="round" stroke-linejoin="round"/>
<path d="M4.79688 12.5C5.87556 12.5 6.75 11.6256 6.75 10.5469C6.75 9.46819 5.87556 8.59375 4.79688 8.59375C3.71819 8.59375 2.84375 9.46819 2.84375 10.5469C2.84375 11.6256 3.71819 12.5 4.79688 12.5Z" stroke="#CCCCCC" stroke-width="2" stroke-linecap="round" stroke-linejoin="round"/>
<path d="M9.48438 7.8125C10.5631 7.8125 11.4375 6.93806 11.4375 5.85938C11.4375 4.78069 10.5631 3.90625 9.48438 3.90625C8.40569 3.90625 7.53125 4.78069 7.53125 5.85938C7.53125 6.93806 8.40569 7.8125 9.48438 7.8125Z" stroke="#CCCCCC" stroke-width="2" stroke-linecap="round" stroke-linejoin="round"/>
<path d="M16.5156 7.8125C17.5943 7.8125 18.4688 6.93806 18.4688 5.85938C18.4688 4.78069 17.5943 3.90625 16.5156 3.90625C15.4369 3.90625 14.5625 4.78069 14.5625 5.85938C14.5625 6.93806 15.4369 7.8125 16.5156 7.8125Z" stroke="#CCCCCC" stroke-width="2" stroke-linecap="round" stroke-linejoin="round"/>
<path d="M18.3897 15.2247C17.4108 14.6764 16.6878 13.764 16.378 12.6856V12.6856C16.1673 11.9522 15.7236 11.3073 15.1141 10.8482C14.5045 10.3891 13.7622 10.1409 12.9991 10.1409C12.236 10.1409 11.4936 10.3891 10.8841 10.8482C10.2745 11.3073 9.83091 11.9522 9.62017 12.6856C9.31033 13.764 8.58737 14.6764 7.60845 15.2247C6.99936 15.5565 6.51798 16.0816 6.24015 16.7171C5.96232 17.3527 5.90384 18.0626 6.07391 18.7351C6.24398 19.4075 6.63294 20.0043 7.17951 20.4313C7.72609 20.8584 8.39921 21.0914 9.09283 21.0938C9.51188 21.0941 9.92681 21.0111 10.3135 20.8497C11.1649 20.4967 12.0775 20.315 12.9991 20.315C13.9207 20.315 14.8333 20.4967 15.6846 20.8497C16.0713 21.0111 16.4863 21.0941 16.9053 21.0938C17.5989 21.0914 18.2721 20.8584 18.8186 20.4313C19.3652 20.0043 19.7542 19.4075 19.9242 18.7351C20.0943 18.0626 20.0358 17.3527 19.758 16.7171C19.4802 16.0816 18.9988 15.5565 18.3897 15.2247Z" stroke="#CCCCCC" stroke-width="2" stroke-linecap="round" stroke-linejoin="round"/>
</svg>
