<svg width="25" height="25" viewBox="0 0 25 25" fill="none" xmlns="http://www.w3.org/2000/svg">
<path d="M12.5 13.6719C13.1472 13.6719 13.6719 13.1472 13.6719 12.5C13.6719 11.8528 13.1472 11.3281 12.5 11.3281C11.8528 11.3281 11.3281 11.8528 11.3281 12.5C11.3281 13.1472 11.8528 13.6719 12.5 13.6719Z" fill="black"/>
<path d="M12.5 7.42188C13.1472 7.42188 13.6719 6.89721 13.6719 6.25C13.6719 5.60279 13.1472 5.07812 12.5 5.07812C11.8528 5.07812 11.3281 5.60279 11.3281 6.25C11.3281 6.89721 11.8528 7.42188 12.5 7.42188Z" fill="black"/>
<path d="M12.5 19.9219C13.1472 19.9219 13.6719 19.3972 13.6719 18.75C13.6719 18.1028 13.1472 17.5781 12.5 17.5781C11.8528 17.5781 11.3281 18.1028 11.3281 18.75C11.3281 19.3972 11.8528 19.9219 12.5 19.9219Z" fill="black"/>
</svg>
