<svg width="18" height="14" viewBox="0 0 18 14" fill="none" xmlns="http://www.w3.org/2000/svg">
<path d="M9.44469 13.555L15.7728 7.22691C17.3275 5.66441 17.5541 3.10973 16.0853 1.47691C15.717 1.06544 15.2686 0.733384 14.7676 0.501042C14.2666 0.2687 13.7234 0.140949 13.1714 0.125594C12.6194 0.110239 12.07 0.207603 11.5568 0.411736C11.0437 0.61587 10.5775 0.922486 10.1869 1.31285L8.99938 2.50816L7.97594 1.47691C6.41344 -0.0777732 3.85875 -0.304336 2.22594 1.16441C1.81446 1.53276 1.48241 1.98114 1.25007 2.48215C1.01772 2.98316 0.889973 3.52628 0.874618 4.07833C0.859263 4.63038 0.956626 5.17976 1.16076 5.69291C1.36489 6.20606 1.67151 6.6722 2.06188 7.06285L8.55406 13.555C8.67256 13.6724 8.8326 13.7382 8.99938 13.7382C9.16616 13.7382 9.32619 13.6724 9.44469 13.555Z" fill="white"/>
</svg>
