<svg width="19" height="17" viewBox="0 0 19 17" fill="none" xmlns="http://www.w3.org/2000/svg">
<path d="M9.94469 14.9613L16.2728 8.63316C17.8275 7.07066 18.0541 4.51598 16.5853 2.88316C16.217 2.47169 15.7686 2.13963 15.2676 1.90729C14.7666 1.67495 14.2234 1.5472 13.6714 1.53184C13.1194 1.51649 12.57 1.61385 12.0568 1.81799C11.5437 2.02212 11.0775 2.32874 10.6869 2.7191L9.49938 3.91441L8.47594 2.88316C6.91344 1.32848 4.35875 1.10191 2.72594 2.57066C2.31446 2.93901 1.98241 3.38739 1.75007 3.8884C1.51772 4.38941 1.38997 4.93253 1.37462 5.48458C1.35926 6.03663 1.45663 6.58601 1.66076 7.09916C1.86489 7.61231 2.17151 8.07845 2.56188 8.4691L9.05406 14.9613C9.17256 15.0787 9.3326 15.1445 9.49938 15.1445C9.66616 15.1445 9.82619 15.0787 9.94469 14.9613V14.9613Z" stroke="white" stroke-width="2" stroke-linecap="round" stroke-linejoin="round"/>
</svg>
