<svg width="50" height="50" viewBox="0 0 50 50" fill="none" xmlns="http://www.w3.org/2000/svg">
<path d="M18.75 10.4165H14.5833C13.4327 10.4165 12.5 11.3492 12.5 12.4998V37.4998C12.5 38.6504 13.4327 39.5832 14.5833 39.5832H18.75C19.9006 39.5832 20.8333 38.6504 20.8333 37.4998V12.4998C20.8333 11.3492 19.9006 10.4165 18.75 10.4165Z" fill="#555353"/>
<path d="M35.416 10.4165H31.2493C30.0988 10.4165 29.166 11.3492 29.166 12.4998V37.4998C29.166 38.6504 30.0988 39.5832 31.2493 39.5832H35.416C36.5666 39.5832 37.4993 38.6504 37.4993 37.4998V12.4998C37.4993 11.3492 36.5666 10.4165 35.416 10.4165Z" fill="#555353"/>
</svg>
